HIERARCHY
ROOT joint_Root
{
	OFFSET 0.0 0.0 0.0
	CHANNELS 6 Xposition Yposition Zposition Zrotation Xrotation Yrotation 
	JOINT Hips
	{
		OFFSET -0.726466 93.3139 -2.00062
		CHANNELS 6 Xposition Yposition Zposition Zrotation Xrotation Yrotation 
		JOINT Spine
		{
			OFFSET 15.7357 0.0 0.0
			CHANNELS 6 Xposition Yposition Zposition Zrotation Xrotation Yrotation 
			JOINT Chest
			{
				OFFSET 8.98455 -0.406207 0.0
				CHANNELS 6 Xposition Yposition Zposition Zrotation Xrotation Yrotation 
				JOINT Neck
				{
					OFFSET 16.3773 0.0 0.0
					CHANNELS 6 Xposition Yposition Zposition Zrotation Xrotation Yrotation 
					JOINT Head
					{
						OFFSET 6.45672 0.0 0.0
						CHANNELS 6 Xposition Yposition Zposition Zrotation Xrotation Yrotation 
						End Site
						{
							OFFSET 0.0 0.0 0.0
						}
					}
				}
				JOINT Shoulder_L
				{
					OFFSET 12.9942 -0.242716 4.98039
					CHANNELS 6 Xposition Yposition Zposition Zrotation Xrotation Yrotation 
					JOINT UpperArm_L
					{
						OFFSET 5.34809 0.0 0.0
						CHANNELS 6 Xposition Yposition Zposition Zrotation Xrotation Yrotation 
						JOINT LowerArm_L
						{
							OFFSET 24.3286 1.87007e-05 0.0
							CHANNELS 6 Xposition Yposition Zposition Zrotation Xrotation Yrotation 
							JOINT Hand_L
							{
								OFFSET 22.2916 0.0 0.0
								CHANNELS 6 Xposition Yposition Zposition Zrotation Xrotation Yrotation 
								End Site
								{
									OFFSET 0.0 0.0 0.0
								}
							}
						}
					}
				}
				JOINT Shoulder_R
				{
					OFFSET 12.9945 -0.242716 -4.98039
					CHANNELS 6 Xposition Yposition Zposition Zrotation Xrotation Yrotation 
					JOINT UpperArm_R
					{
						OFFSET -5.34813 0.0 0.0
						CHANNELS 6 Xposition Yposition Zposition Zrotation Xrotation Yrotation 
						JOINT LowerArm_R
						{
							OFFSET -24.3289 0.000322201 0.0
							CHANNELS 6 Xposition Yposition Zposition Zrotation Xrotation Yrotation 
							JOINT Hand_R
							{
								OFFSET -22.2915 -0.000108084 0.0
								CHANNELS 6 Xposition Yposition Zposition Zrotation Xrotation Yrotation 
								End Site
								{
									OFFSET 0.0 0.0 0.0
								}
							}
						}
					}
				}
			}
		}
		JOINT UpperLeg_L
		{
			OFFSET -2.19248 -6.46944 0.0
			CHANNELS 6 Xposition Yposition Zposition Zrotation Xrotation Yrotation 
			JOINT LowerLeg_L
			{
				OFFSET 39.0811 0.0 -1.23785e-05
				CHANNELS 6 Xposition Yposition Zposition Zrotation Xrotation Yrotation 
				JOINT Foot_L
				{
					OFFSET 40.9854 0.0 -1.26872e-05
					CHANNELS 6 Xposition Yposition Zposition Zrotation Xrotation Yrotation 
					JOINT Toes_L
					{
						OFFSET 11.7543 0.0 0.0
						CHANNELS 6 Xposition Yposition Zposition Zrotation Xrotation Yrotation 
						End Site
						{
							OFFSET 0.0 0.0 0.0
						}
					}
				}
			}
		}
		JOINT UpperLeg_R
		{
			OFFSET -2.19251 6.46944 0.0
			CHANNELS 6 Xposition Yposition Zposition Zrotation Xrotation Yrotation 
			JOINT LowerLeg_R
			{
				OFFSET -39.0811 -0.00228153 -0.0401928
				CHANNELS 6 Xposition Yposition Zposition Zrotation Xrotation Yrotation 
				JOINT Foot_R
				{
					OFFSET -40.9854 0.0 0.0
					CHANNELS 6 Xposition Yposition Zposition Zrotation Xrotation Yrotation 
					JOINT Toes_R
					{
						OFFSET -11.7543 0.0 0.0
						CHANNELS 6 Xposition Yposition Zposition Zrotation Xrotation Yrotation 
						End Site
						{
							OFFSET 0.0 0.0 0.0
						}
					}
				}
			}
		}
	}
}
MOTION
Frames:	4
Frame Time:	0.0333333
0.000000 0.000000 0.000000 0.000000 0.000000 -0.000000 -1.812290 91.991700 -0.522495 87.970500 -0.148077 6.044120 15.735700 0.000005 -0.000001 74.626700 86.907900 -73.773200 8.984550 -0.406207 -0.000000 -1.789970 -1.710260 1.679960 16.377300 -0.000001 -0.000001 -0.696716 -1.422940 1.090440 6.456720 -0.000001 -0.000000 0.492483 -0.568688 -0.023048 12.994200 -0.242716 4.980390 -84.403200 -12.112100 -64.966200 5.348090 -0.000007 -0.000001 -57.729100 -53.315100 -90.377900 24.328600 0.000019 0.000005 0.381727 0.213857 -60.739300 22.291600 -0.000001 0.000005 17.675600 5.652590 -15.267300 12.994500 -0.242716 -4.980390 93.080300 -7.230190 -66.849700 -5.348130 -0.000001 -0.000004 -55.793000 -54.184500 -105.979000 -24.328900 0.000322 -0.000009 2.619810 2.373420 -47.865900 -22.291500 -0.000108 -0.000004 18.640300 5.611860 -12.078400 -2.192480 -6.469440 -0.000000 -168.734000 -18.565600 -0.871422 39.081100 -0.000007 -0.000012 -0.146813 0.344362 23.090300 40.985400 -0.000006 -0.000013 -5.889660 0.444336 -63.859400 11.754300 -0.000000 0.000003 -0.000145 -0.001413 -16.631300 -2.192510 6.469440 -0.000001 174.177000 23.151100 -178.477000 -39.081100 -0.002282 -0.040193 0.026799 -0.059133 21.656900 -40.985400 0.000008 0.000006 -0.204497 2.390520 -64.965100 -11.754300 -0.000006 -0.000006 -0.004735 -0.058876 -18.968400
0.000000 0.000000 0.000000 0.000000 0.000000 -0.000000 -1.792520 91.991000 -0.511386 87.959700 -0.151079 6.032150 15.735700 0.000005 -0.000001 75.135800 86.889400 -74.286200 8.984550 -0.406207 -0.000000 -1.740350 -1.665990 1.673500 16.377300 -0.000001 -0.000001 -0.637164 -1.411730 1.121200 6.456720 -0.000001 -0.000000 0.596932 -0.536128 -0.071702 12.994200 -0.242716 4.980390 -84.387300 -12.127600 -64.931000 5.348090 -0.000007 -0.000001 -57.822700 -53.430100 -90.387600 24.328600 0.000019 0.000005 0.284806 0.159314 -60.775900 22.291600 -0.000001 0.000005 17.815200 5.652260 -15.234800 12.994500 -0.242716 -4.980390 93.119000 -7.284880 -66.745000 -5.348130 -0.000001 -0.000004 -55.656200 -54.314600 -105.921000 -24.328900 0.000322 -0.000009 2.722560 2.458780 -47.957000 -22.291500 -0.000108 -0.000004 19.044600 5.608520 -11.864900 -2.192480 -6.469440 -0.000000 -168.753000 -18.561900 -0.901494 39.081100 -0.000007 -0.000012 -0.144193 0.337626 23.126500 40.985400 -0.000006 -0.000013 -5.875760 0.411991 -63.886000 11.754300 -0.000000 0.000003 -0.000147 -0.001431 -16.632000 -2.192510 6.469440 -0.000001 174.194000 23.133900 -178.514000 -39.081100 -0.002282 -0.040193 0.028784 -0.063998 21.698100 -40.985400 0.000008 0.000006 -0.119239 2.346430 -64.964900 -11.754300 -0.000006 -0.000006 -0.004924 -0.060725 -19.043800
0.000000 0.000000 0.000000 0.000000 0.000000 -0.000000 -1.769240 91.999700 -0.522008 87.977100 -0.145213 6.004820 15.735700 0.000005 -0.000001 75.381800 86.874100 -74.555800 8.984550 -0.406207 -0.000000 -1.704360 -1.645700 1.627180 16.377300 -0.000001 -0.000001 -0.512210 -1.387650 1.157810 6.456720 -0.000001 -0.000000 0.642229 -0.501498 -0.079841 12.994200 -0.242716 4.980390 -84.354100 -12.133400 -64.810500 5.348090 -0.000007 -0.000001 -58.060700 -53.449500 -90.528600 24.328600 0.000019 0.000005 0.314905 0.175695 -60.839600 22.291600 -0.000001 0.000005 17.842600 5.653570 -15.366100 12.994500 -0.242716 -4.980390 93.121800 -7.266440 -66.674100 -5.348130 -0.000001 -0.000004 -55.460300 -54.442700 -105.800000 -24.328900 0.000322 -0.000009 2.691090 2.414220 -48.146000 -22.291500 -0.000108 -0.000004 19.294700 5.603350 -11.547100 -2.192480 -6.469440 -0.000000 -168.791000 -18.561600 -0.893326 39.081100 -0.000007 -0.000012 -0.144862 0.340289 23.059700 40.985400 -0.000006 -0.000013 -5.865520 0.407665 -63.861000 11.754300 -0.000000 0.000003 -0.000142 -0.001390 -16.630500 -2.192510 6.469440 -0.000001 174.164000 23.179900 -178.547000 -39.081100 -0.002282 -0.040193 0.028030 -0.062133 21.689200 -40.985400 0.000008 0.000006 -0.132430 2.397550 -64.907300 -11.754300 -0.000006 -0.000006 -0.004786 -0.059378 -18.988900
0.000000 0.000000 0.000000 0.000000 0.000000 -0.000000 -1.758670 91.999900 -0.541945 87.951800 -0.148870 5.967370 15.735700 0.000005 -0.000001 75.561300 86.855000 -74.750400 8.984550 -0.406207 -0.000000 -1.662880 -1.634700 1.597900 16.377300 -0.000001 -0.000001 -0.353627 -1.353560 1.132650 6.456720 -0.000001 -0.000000 0.672763 -0.473234 -0.052557 12.994200 -0.242716 4.980390 -84.338400 -12.113500 -64.713300 5.348090 -0.000007 -0.000001 -58.165300 -53.467600 -90.459500 24.328600 0.000019 0.000005 0.060164 0.033125 -61.175200 22.291600 -0.000001 0.000005 17.825000 5.653030 -15.312500 12.994500 -0.242716 -4.980390 93.111700 -7.219430 -66.607100 -5.348130 -0.000001 -0.000004 -55.201300 -54.539300 -105.533000 -24.328900 0.000322 -0.000009 3.030280 2.682000 -48.537000 -22.291500 -0.000108 -0.000004 19.497900 5.591430 -10.844800 -2.192480 -6.469440 -0.000000 -168.794000 -18.593800 -0.979786 39.081100 -0.000007 -0.000012 -0.142860 0.334786 23.109100 40.985400 -0.000006 -0.000013 -5.845950 0.414076 -63.864900 11.754300 -0.000000 0.000003 -0.000133 -0.001309 -16.627500 -2.192510 6.469440 -0.000001 174.210000 23.175000 -178.608000 -39.081100 -0.002282 -0.040193 0.028450 -0.063202 21.684600 -40.985400 0.000008 0.000006 -0.162948 2.369320 -64.876100 -11.754300 -0.000006 -0.000006 -0.004952 -0.061004 -19.055200
